{
  "accessors": [
    {
      "bufferView": 2,
      "componentType": 5126,
      "count": 3432,
      "max": [
        1.3949544429779053,
        0.12397056072950363,
        0.2768514156341553
      ],
      "min": [
        0.23110194504261017,
        -0.20596304535865784,
        -0.29426029324531555
      ],
      "type": "VEC3"
    },
    {
      "bufferView": 2,
      "byteOffset": 41184,
      "componentType": 5126,
      "count": 3432,
      "max": [
        0.9976469874382019,
        0.9997593760490417,
        0.9998731017112732
      ],
      "min": [
        -0.7505706548690796,
        -0.9998977780342102,
        -0.9981418251991272
      ],
      "type": "VEC3"
    },
    {
      "bufferView": 3,
      "componentType": 5126,
      "count": 3432,
      "max": [
        0.4313725531101227,
        0.8274509906768799,
        0.8941176533699036,
        1.0
      ],
      "min": [
        0.4313725531101227,
        0.8274509906768799,
        0.8941176533699036,
        1.0
      ],
      "type": "VEC4"
    },
    {
      "bufferView": 0,
      "componentType": 5125,
      "count": 20472,
      "type": "SCALAR"
    },
    {
      "bufferView": 2,
      "byteOffset": 82368,
      "componentType": 5126,
      "count": 3432,
      "max": [
        -0.24247026443481445,
        0.13251322507858276,
        0.2443554699420929
      ],
      "min": [
        -1.4045467376708984,
        -0.20083566009998322,
        -0.32330167293548584
      ],
      "type": "VEC3"
    },
    {
      "bufferView": 2,
      "byteOffset": 123552,
      "componentType": 5126,
      "count": 3432,
      "max": [
        0.7546998858451843,
        0.9999557137489319,
        0.9999015927314758
      ],
      "min": [
        -0.9981802701950073,
        -0.9991788864135742,
        -0.9984159469604492
      ],
      "type": "VEC3"
    },
    {
      "bufferView": 3,
      "byteOffset": 54912,
      "componentType": 5126,
      "count": 3432,
      "max": [
        0.4313725531101227,
        0.8274509906768799,
        0.8941176533699036,
        1.0
      ],
      "min": [
        0.4313725531101227,
        0.8274509906768799,
        0.8941176533699036,
        1.0
      ],
      "type": "VEC4"
    },
    {
      "bufferView": 0,
      "byteOffset": 81888,
      "componentType": 5125,
      "count": 20472,
      "type": "SCALAR"
    },
    {
      "bufferView": 2,
      "byteOffset": 164736,
      "componentType": 5126,
      "count": 2396,
      "max": [
        0.26808005571365356,
        -0.03899902105331421,
        -0.6819561719894409
      ],
      "min": [
        -0.28673502802848816,
        -0.2652096152305603,
        -1.0354187488555908
      ],
      "type": "VEC3"
    },
    {
      "bufferView": 2,
      "byteOffset": 193488,
      "componentType": 5126,
      "count": 2396,
      "max": [
        0.9996874928474426,
        0.9998365640640259,
        0.9999062418937683
      ],
      "min": [
        -0.9999978542327881,
        -0.9989699721336365,
        -0.9888544678688049
      ],
      "type": "VEC3"
    },
    {
      "bufferView": 3,
      "byteOffset": 109824,
      "componentType": 5126,
      "count": 2396,
      "max": [
        0.4313725531101227,
        0.8274509906768799,
        0.8941176533699036,
        1.0
      ],
      "min": [
        0.4313725531101227,
        0.8274509906768799,
        0.8941176533699036,
        1.0
      ],
      "type": "VEC4"
    },
    {
      "bufferView": 0,
      "byteOffset": 163776,
      "componentType": 5125,
      "count": 14352,
      "type": "SCALAR"
    },
    {
      "bufferView": 2,
      "byteOffset": 222240,
      "componentType": 5126,
      "count": 1676,
      "max": [
        0.5193234086036682,
        0.0900067612528801,
        0.6628956198692322
      ],
      "min": [
        -0.5349792242050171,
        -0.08550135046243668,
        0.26781830191612244
      ],
      "type": "VEC3"
    },
    {
      "bufferView": 2,
      "byteOffset": 242352,
      "componentType": 5126,
      "count": 1676,
      "max": [
        0.9995948076248169,
        0.9999780654907227,
        0.9852027893066406
      ],
      "min": [
        -0.999019980430603,
        -0.9999938607215881,
        -0.9986636638641357
      ],
      "type": "VEC3"
    },
    {
      "bufferView": 3,
      "byteOffset": 148160,
      "componentType": 5126,
      "count": 1676,
      "max": [
        0.8078431487083435,
        0.8941176533699036,
        0.9098039269447327,
        1.0
      ],
      "min": [
        0.8078431487083435,
        0.8941176533699036,
        0.9098039269447327,
        1.0
      ],
      "type": "VEC4"
    },
    {
      "bufferView": 0,
      "byteOffset": 221184,
      "componentType": 5125,
      "count": 9756,
      "type": "SCALAR"
    },
    {
      "bufferView": 2,
      "byteOffset": 262464,
      "componentType": 5126,
      "count": 8383,
      "max": [
        0.21981002390384674,
        0.015443040058016777,
        0.5587449073791504
      ],
      "min": [
        -0.21981002390384674,
        -0.42417705059051514,
        0.11912477016448975
      ],
      "type": "VEC3"
    },
    {
      "bufferView": 2,
      "byteOffset": 363060,
      "componentType": 5126,
      "count": 8383,
      "max": [
        1.0,
        1.0,
        1.0
      ],
      "min": [
        -1.0,
        -1.0,
        -1.0
      ],
      "type": "VEC3"
    },
    {
      "bufferView": 3,
      "byteOffset": 174976,
      "componentType": 5126,
      "count": 8383,
      "max": [
        0.19607843458652496,
        0.12941177189350128,
        0.10196078568696976,
        1.0
      ],
      "min": [
        0.19607843458652496,
        0.12941177189350128,
        0.10196078568696976,
        1.0
      ],
      "type": "VEC4"
    },
    {
      "bufferView": 1,
      "componentType": 5126,
      "count": 8383,
      "max": [
        1.0,
        1.0
      ],
      "min": [
        0.0,
        0.0
      ],
      "type": "VEC2"
    },
    {
      "bufferView": 0,
      "byteOffset": 260208,
      "componentType": 5125,
      "count": 48384,
      "type": "SCALAR"
    },
    {
      "bufferView": 2,
      "byteOffset": 463656,
      "componentType": 5126,
      "count": 24483,
      "max": [
        0.7377450466156006,
        0.5505938529968262,
        0.6878451108932495
      ],
      "min": [
        -0.7377464771270752,
        -0.720080554485321,
        -0.863904595375061
      ],
      "type": "VEC3"
    },
    {
      "bufferView": 2,
      "byteOffset": 757452,
      "componentType": 5126,
      "count": 24483,
      "max": [
        0.9999416470527649,
        0.9999338388442993,
        0.9999992847442627
      ],
      "min": [
        -0.9999399781227112,
        -0.999913215637207,
        -0.9999637603759766
      ],
      "type": "VEC3"
    },
    {
      "bufferView": 3,
      "byteOffset": 309104,
      "componentType": 5126,
      "count": 24483,
      "max": [
        0.929411768913269,
        0.929411768913269,
        0.9372549057006836,
        1.0
      ],
      "min": [
        0.05882352963089943,
        0.08627451211214066,
        0.14509804546833038,
        1.0
      ],
      "type": "VEC4"
    },
    {
      "bufferView": 0,
      "byteOffset": 453744,
      "componentType": 5125,
      "count": 146538,
      "type": "SCALAR"
    }
  ],
  "asset": {
    "extras": {
      "author": "NurFatinAmin (https://sketchfab.com/NurFatinAmin)",
      "license": "CC-BY-4.0 (http://creativecommons.org/licenses/by/4.0/)",
      "source": "https://sketchfab.com/3d-models/cute-alien-51dcf0f1805542b6b7db3dda902338ad",
      "title": "Cute Alien"
    },
    "generator": "Sketchfab-12.68.0",
    "version": "2.0"
  },
  "bufferViews": [
    {
      "buffer": 0,
      "byteLength": 1039896,
      "name": "floatBufferViews",
      "target": 34963
    },
    {
      "buffer": 0,
      "byteLength": 67064,
      "byteOffset": 1039896,
      "byteStride": 8,
      "name": "floatBufferViews",
      "target": 34962
    },
    {
      "buffer": 0,
      "byteLength": 1051248,
      "byteOffset": 1106960,
      "byteStride": 12,
      "name": "floatBufferViews",
      "target": 34962
    },
    {
      "buffer": 0,
      "byteLength": 700832,
      "byteOffset": 2158208,
      "byteStride": 16,
      "name": "floatBufferViews",
      "target": 34962
    }
  ],
  "buffers": [
    {
      "byteLength": 2859040,
      "uri": "scene.bin"
    }
  ],
  "materials": [
    {
      "doubleSided": true,
      "name": "material_0",
      "pbrMetallicRoughness": {
        "metallicFactor": 0.0,
        "roughnessFactor": 0.42732217013540547
      }
    },
    {
      "doubleSided": true,
      "name": "defaultMat",
      "pbrMetallicRoughness": {
        "baseColorFactor": [
          0.8,
          0.8,
          0.8,
          1.0
        ],
        "metallicFactor": 0.0,
        "roughnessFactor": 0.04978293781806897
      }
    },
    {
      "doubleSided": true,
      "name": "material_1",
      "pbrMetallicRoughness": {
        "metallicFactor": 0.0,
        "roughnessFactor": 0.08018380363472744
      }
    },
    {
      "doubleSided": true,
      "name": "material_2",
      "pbrMetallicRoughness": {
        "metallicFactor": 0.0,
        "roughnessFactor": 0.6
      }
    },
    {
      "doubleSided": true,
      "name": "material_3",
      "pbrMetallicRoughness": {
        "metallicFactor": 0.0,
        "roughnessFactor": 0.6
      }
    },
    {
      "doubleSided": true,
      "name": "material_4",
      "pbrMetallicRoughness": {
        "metallicFactor": 0.0,
        "roughnessFactor": 0.6
      }
    }
  ],
  "meshes": [
    {
      "name": "Object_0",
      "primitives": [
        {
          "attributes": {
            "COLOR_0": 2,
            "NORMAL": 1,
            "POSITION": 0
          },
          "indices": 3,
          "material": 5,
          "mode": 4
        }
      ]
    },
    {
      "name": "Object_1",
      "primitives": [
        {
          "attributes": {
            "COLOR_0": 6,
            "NORMAL": 5,
            "POSITION": 4
          },
          "indices": 7,
          "material": 4,
          "mode": 4
        }
      ]
    },
    {
      "name": "Object_2",
      "primitives": [
        {
          "attributes": {
            "COLOR_0": 10,
            "NORMAL": 9,
            "POSITION": 8
          },
          "indices": 11,
          "material": 3,
          "mode": 4
        }
      ]
    },
    {
      "name": "Object_3",
      "primitives": [
        {
          "attributes": {
            "COLOR_0": 14,
            "NORMAL": 13,
            "POSITION": 12
          },
          "indices": 15,
          "material": 2,
          "mode": 4
        }
      ]
    },
    {
      "name": "Object_4",
      "primitives": [
        {
          "attributes": {
            "COLOR_0": 18,
            "NORMAL": 17,
            "POSITION": 16,
            "TEXCOORD_0": 19
          },
          "indices": 20,
          "material": 1,
          "mode": 4
        }
      ]
    },
    {
      "name": "Object_5",
      "primitives": [
        {
          "attributes": {
            "COLOR_0": 23,
            "NORMAL": 22,
            "POSITION": 21
          },
          "indices": 24,
          "material": 0,
          "mode": 4
        }
      ]
    }
  ],
  "nodes": [
    {
      "children": [
        1
      ],
      "matrix": [
        1.0,
        0.0,
        0.0,
        0.0,
        0.0,
        2.220446049250313e-16,
        -1.0,
        0.0,
        0.0,
        1.0,
        2.220446049250313e-16,
        0.0,
        0.0,
        0.0,
        0.0,
        1.0
      ],
      "name": "Sketchfab_model"
    },
    {
      "children": [
        2,
        4,
        6,
        8,
        10,
        12
      ],
      "name": "zbrush_concat.osgb.cleaner.materialmerger.gles"
    },
    {
      "children": [
        3
      ],
      "name": "/sketchfab-data/processing/models/7a30e42c125045f2bab01708c4d4e4e7/51dcf0f1805542b6b7db3dda902338ad/32d7d029ac594458ab6f52de9172e73c/preprocess/SubTool-5-14136546.OBJ"
    },
    {
      "mesh": 0,
      "name": "Object_3"
    },
    {
      "children": [
        5
      ],
      "name": "/sketchfab-data/processing/models/7a30e42c125045f2bab01708c4d4e4e7/51dcf0f1805542b6b7db3dda902338ad/32d7d029ac594458ab6f52de9172e73c/preprocess/SubTool-4-14136546.OBJ"
    },
    {
      "mesh": 1,
      "name": "Object_5"
    },
    {
      "children": [
        7
      ],
      "name": "/sketchfab-data/processing/models/7a30e42c125045f2bab01708c4d4e4e7/51dcf0f1805542b6b7db3dda902338ad/32d7d029ac594458ab6f52de9172e73c/preprocess/SubTool-3-5033148.OBJ"
    },
    {
      "mesh": 2,
      "name": "Object_7"
    },
    {
      "children": [
        9
      ],
      "name": "/sketchfab-data/processing/models/7a30e42c125045f2bab01708c4d4e4e7/51dcf0f1805542b6b7db3dda902338ad/32d7d029ac594458ab6f52de9172e73c/preprocess/SubTool-2-14619833.OBJ"
    },
    {
      "mesh": 3,
      "name": "Object_9"
    },
    {
      "children": [
        11
      ],
      "name": "/sketchfab-data/processing/models/7a30e42c125045f2bab01708c4d4e4e7/51dcf0f1805542b6b7db3dda902338ad/32d7d029ac594458ab6f52de9172e73c/preprocess/SubTool-1-11865867.OBJ"
    },
    {
      "mesh": 4,
      "name": "Object_11"
    },
    {
      "children": [
        13
      ],
      "name": "/sketchfab-data/processing/models/7a30e42c125045f2bab01708c4d4e4e7/51dcf0f1805542b6b7db3dda902338ad/32d7d029ac594458ab6f52de9172e73c/preprocess/SubTool-0-10233600.OBJ"
    },
    {
      "mesh": 5,
      "name": "Object_13"
    }
  ],
  "scene": 0,
  "scenes": [
    {
      "name": "Sketchfab_Scene",
      "nodes": [
        0
      ]
    }
  ]
}
